<?xml version="1.0" encoding="utf-8"?>
<!-- Generator: Adobe Illustrator 24.1.2, SVG Export Plug-In . SVG Version: 6.00 Build 0)  -->
<svg version="1.1" id="Calque_1" xmlns="http://www.w3.org/2000/svg" xmlns:xlink="http://www.w3.org/1999/xlink" x="0px" y="0px"
	 viewBox="0 0 512 512" style="enable-background:new 0 0 512 512;" xml:space="preserve">
<style type="text/css">
	.st0{fill:#00B0FF;}
</style>
<g id="Layer_1">
</g>
<g id="Layer_2">
	<g>
		<path class="st0" d="M274.9,47.8c-97.6,0-179.7,67.5-202.1,158.3l-14-24.6c-4.4-7.7-14.1-10.4-21.8-6s-10.4,14.1-6,21.8l37.7,66.4
			l0,0l0.2,0.3c0.2,0.3,0.4,0.7,0.6,1l0,0c0,0.1,0.1,0.1,0.1,0.2c0.2,0.3,0.5,0.6,0.7,1l0.1,0.1l0,0c0,0,0,0,0.1,0.1
			c0.4,0.4,0.8,0.9,1.2,1.2l0.1,0.1c0.2,0.2,0.5,0.5,0.8,0.7c0.1,0,0.1,0.1,0.2,0.1c0.3,0.3,0.7,0.5,1.1,0.8c0,0,0.1,0,0.1,0.1
			c0.2,0.1,0.3,0.2,0.5,0.3c0.1,0.1,0.2,0.1,0.3,0.2c0.1,0.1,0.2,0.1,0.4,0.2c0.1,0.1,0.2,0.1,0.3,0.2c0.2,0.1,0.4,0.2,0.6,0.3
			c0.1,0,0.2,0.1,0.3,0.1l0,0c0.1,0,0.2,0.1,0.4,0.2c0.3,0.1,0.7,0.3,1,0.4h0.1c0,0,0,0,0.1,0c0.2,0,0.3,0.1,0.5,0.1
			c0.3,0.1,0.6,0.2,0.9,0.2c0.1,0,0.2,0,0.2,0.1c0.1,0,0.1,0,0.2,0c0.4,0.1,0.9,0.1,1.3,0.2h0.1c0.1,0,0.2,0,0.2,0
			c0.5,0,1,0.1,1.5,0.1c0.4,0,0.8,0,1.3-0.1c0.1,0,0.1,0,0.2,0l0,0c0.1,0,0.1,0,0.2,0c0.3,0,0.6-0.1,0.8-0.1c0.1,0,0.2,0,0.2,0
			c0.1,0,0.2,0,0.4-0.1c0.1,0,0.1,0,0.2,0c0.4-0.1,0.8-0.2,1.2-0.3c0.1,0,0.2-0.1,0.3-0.1c0.1,0,0.2-0.1,0.3-0.1
			c0.1,0,0.3-0.1,0.4-0.1c0.2-0.1,0.3-0.1,0.5-0.2c0.1,0,0.2-0.1,0.3-0.1c0.1-0.1,0.3-0.1,0.4-0.2c0.2-0.1,0.4-0.2,0.6-0.3
			c0.1-0.1,0.2-0.1,0.4-0.2c0.3-0.1,0.6-0.3,0.8-0.5c0.2-0.1,0.3-0.2,0.4-0.3c0.1,0,0.1-0.1,0.2-0.1c0.2-0.1,0.3-0.2,0.5-0.4
			c0.1,0,0.1-0.1,0.2-0.1c0.1-0.1,0.2-0.2,0.3-0.3l0,0l59-48.9c6.8-5.6,7.8-15.7,2.1-22.5c-5.6-6.8-15.7-7.8-22.5-2.1l-28.8,23.9
			C120,139.5,190.7,79.9,275,79.9c97.2,0,176.2,79.1,176.2,176.2S372.1,432.3,275,432.3c-8.8,0-16,7.2-16,16s7.2,16,16,16
			c114.8,0,208.2-93.4,208.2-208.2S389.7,47.8,274.9,47.8z"/>
	</g>
</g>
</svg>
