<?xml version="1.0" encoding="utf-8"?>
<!-- Generator: Adobe Illustrator 24.1.2, SVG Export Plug-In . SVG Version: 6.00 Build 0)  -->
<svg version="1.1" id="Capa_1" xmlns="http://www.w3.org/2000/svg" xmlns:xlink="http://www.w3.org/1999/xlink" x="0px" y="0px"
	 viewBox="0 0 512 512" style="enable-background:new 0 0 512 512;" xml:space="preserve">
<style type="text/css">
	.st0{fill:#00B0FF;}
</style>
<g>
	<g>
		<path class="st0" d="M368.6,0H20.5C9.2,0,0,9.2,0,20.5v348.2c0,11.3,9.2,20.5,20.5,20.5h348.2c11.3,0,20.5-9.2,20.5-20.5V20.5
			C389.1,9.2,379.9,0,368.6,0z M348.2,348.2H41V41h307.2V348.2z"/>
	</g>
</g>
<g>
	<g>
		<path class="st0" d="M471,419.8V471h-51.2v41h71.7c11.3,0,20.5-9.2,20.5-20.5v-71.7H471z"/>
	</g>
</g>
<g>
	<g>
		<rect x="262.3" y="471" class="st0" width="110.2" height="41"/>
	</g>
</g>
<g>
	<g>
		<path class="st0" d="M163.8,471v-51.2h-41v71.7c0,11.3,9.2,20.5,20.5,20.5H215v-41H163.8z"/>
	</g>
</g>
<g>
	<g>
		<path class="st0" d="M491.5,122.9h-71.7v41H471V215h41v-71.7C512,132.1,502.8,122.9,491.5,122.9z"/>
	</g>
</g>
<g>
	<g>
		<rect x="471" y="262.3" class="st0" width="41" height="110.2"/>
	</g>
</g>
</svg>
