<?xml version="1.0" encoding="utf-8"?>
<!-- Generator: Adobe Illustrator 24.0.0, SVG Export Plug-In . SVG Version: 6.00 Build 0)  -->
<svg version="1.1" id="Calque_1" xmlns="http://www.w3.org/2000/svg" xmlns:xlink="http://www.w3.org/1999/xlink" x="0px" y="0px"
	 viewBox="0 0 512 512" style="enable-background:new 0 0 512 512;" xml:space="preserve">
<style type="text/css">
	.st0{fill:#41B9AF;}
</style>
<g id="Page-1">
	<g id="_x30_47---Delete">
		<path id="Shape" class="st0" d="M72.1,488.2c2.1,14.2,14.6,24.5,29,23.8h309.8c14.3,0.7,26.9-9.6,29-23.8l28.9-361
			c21.6-4.1,36.6-24,34.5-45.9c-2.1-21.9-20.5-38.7-42.5-38.6H371l-6-7.4C347.3,12.9,320.3-0.1,291.8,0h-71.6
			c-28.5-0.1-55.5,12.9-73.3,35.2l-6,7.4H51.2c-22,0-40.4,16.7-42.5,38.6s12.9,41.8,34.5,45.9L72.1,488.2z M422.9,486.8
			c-0.4,4.5-5.7,8.1-11.9,8.1H101.1c-6.2,0-11.6-3.6-11.9-8.1L60.4,128h391.1L422.9,486.8z M220.2,17.1h71.6
			c21.8,0,42.6,9.3,57.1,25.6H163.1C177.6,26.4,198.4,17,220.2,17.1z M25.6,85.3c0-14.1,11.5-25.6,25.6-25.6h409.6
			c14.1,0,25.6,11.5,25.6,25.6s-11.5,25.6-25.6,25.6H51.2C37.1,110.9,25.6,99.5,25.6,85.3z"/>
		<path id="Shape_1_" class="st0" d="M230.4,435.2c4.7,0,8.5-3.8,8.5-8.5V196.3c0-9.4,7.6-17.1,17.1-17.1s17.1,7.6,17.1,17.1
			c0,4.7,3.8,8.5,8.5,8.5s8.5-3.8,8.5-8.5c0-18.9-15.3-34.1-34.1-34.1s-34.1,15.3-34.1,34.1v230.4
			C221.9,431.4,225.7,435.2,230.4,435.2z"/>
		<path id="Shape_2_" class="st0" d="M128,435.2c4.7,0,8.5-3.8,8.5-8.5V196.3c0-9.4,7.6-17.1,17.1-17.1c9.4,0,17.1,7.6,17.1,17.1
			c0,4.7,3.8,8.5,8.5,8.5c4.7,0,8.5-3.8,8.5-8.5c0-18.9-15.3-34.1-34.1-34.1s-34.1,15.3-34.1,34.1v230.4
			C119.5,431.4,123.3,435.2,128,435.2z"/>
		<path id="Shape_3_" class="st0" d="M332.8,435.2c4.7,0,8.5-3.8,8.5-8.5V196.3c0-9.4,7.6-17.1,17.1-17.1c9.4,0,17.1,7.6,17.1,17.1
			c0,4.7,3.8,8.5,8.5,8.5c4.7,0,8.5-3.8,8.5-8.5c0-18.9-15.3-34.1-34.1-34.1c-18.9,0-34.1,15.3-34.1,34.1v230.4
			C324.3,431.4,328.1,435.2,332.8,435.2z"/>
	</g>
</g>
</svg>
