<?xml version="1.0" encoding="utf-8"?>
<!-- Generator: Adobe Illustrator 24.0.0, SVG Export Plug-In . SVG Version: 6.00 Build 0)  -->
<svg version="1.1" id="Capa_1" xmlns="http://www.w3.org/2000/svg" xmlns:xlink="http://www.w3.org/1999/xlink" x="0px" y="0px"
	 viewBox="0 0 512.2 512.2" style="enable-background:new 0 0 512.2 512.2;" xml:space="preserve">
<style type="text/css">
	.st0{fill:#D74561;}
</style>
<g>
	<g>
		<path class="st0" d="M35.5,295.6l213.4,213.5c2,2,4.7,3.1,7.6,3.1c2.8,0,5.5-1.1,7.6-3.1l212.7-213.5c3.1-3.1,3.9-7.6,2.3-11.6
			c-1.7-4-5.5-6.6-9.9-6.6H351.9V10.7c0-5.9-4.8-10.7-10.7-10.7H170.5c-5.9,0-10.7,4.8-10.7,10.7v266.7H42.9c-4.3,0-8.2,2.6-9.9,6.6
			C31.5,287.9,32.4,292.5,35.5,295.6z"/>
	</g>
</g>
</svg>
