<?xml version="1.0" encoding="utf-8"?>
<!-- Generator: Adobe Illustrator 24.2.0, SVG Export Plug-In . SVG Version: 6.00 Build 0)  -->
<svg version="1.1" id="Calque_1" xmlns="http://www.w3.org/2000/svg" xmlns:xlink="http://www.w3.org/1999/xlink" x="0px" y="0px"
	 viewBox="0 0 512 512" style="enable-background:new 0 0 512 512;" xml:space="preserve">
<style type="text/css">
	.st0{fill:#00B0FF;}
</style>
<path class="st0" d="M231.9,235.1c28.2,0,51.2-22.9,51.2-51.1c0-28.2-22.9-51.2-51.2-51.2s-51.1,22.9-51.1,51.2
	C180.8,212.2,203.7,235.1,231.9,235.1z M231.9,162.8c11.7,0,21.2,9.5,21.2,21.2c0,11.7-9.5,21.1-21.2,21.1
	c-11.7,0-21.1-9.5-21.1-21.1C210.8,172.3,220.2,162.8,231.9,162.8z"/>
<path class="st0" d="M493.3,37H18.7C8.4,37,0,45.4,0,55.7v401.7c0,10.3,8.4,18.7,18.7,18.7h474.6c10.3,0,18.7-8.4,18.7-18.7V55.7
	C512,45.4,503.6,37,493.3,37z M482,67v237.4l-94.4-94.4c-6.2-6.1-16.2-6.1-22.3,0L231.9,343.5l-85.2-85.2c-3-3-6.9-4.6-11.2-4.6
	c-4.2,0-8.2,1.6-11.2,4.6L30,352.6V67H482z M30,446.1V395l105.5-105.5l85.2,85.2c3,3,6.9,4.6,11.2,4.6c4.2,0,8.2-1.6,11.2-4.6
	l133.4-133.4L482,346.8v99.3H30z"/>
</svg>
