<?xml version="1.0" encoding="utf-8"?>
<!-- Generator: Adobe Illustrator 24.0.0, SVG Export Plug-In . SVG Version: 6.00 Build 0)  -->
<svg version="1.1" id="Calque_1" xmlns="http://www.w3.org/2000/svg" xmlns:xlink="http://www.w3.org/1999/xlink" x="0px" y="0px"
	 viewBox="0 0 512 512" style="enable-background:new 0 0 512 512;" xml:space="preserve">
<style type="text/css">
	.st0{fill:#41B9AF;}
</style>
<g id="Page-1">
	<g id="_x30_48---Link">
		<path id="Shape" class="st0" d="M61.2,487c33.3,33.3,87.3,33.3,120.7,0l155.8-155.8L487,181.9c33.3-33.3,33.3-87.3,0-120.7
			L450.8,25c-33.4-33.3-87.3-33.3-120.7,0L180.8,174.3L25,330.1c-33.3,33.3-33.3,87.3,0,120.7L61.2,487z M348.5,223.9
			c-3.1-4.8-6.8-9.3-10.8-13.3l-36.2-36.2c-4.1-4-8.5-7.7-13.3-10.8l84.2-84.2c10.1-9.7,26.1-9.7,36.2,0l24.1,24.1
			c4.8,4.8,7.5,11.3,7.5,18.1s-2.7,13.3-7.5,18.1L348.5,223.9z M342.2,37.1c26.7-26.6,69.9-26.6,96.5,0l36.2,36.2
			c26.6,26.7,26.6,69.9,0,96.5L361.7,283c2.1-14.6,0.4-29.5-5-43.3l88-88c8-8,12.5-18.8,12.5-30.2s-4.5-22.2-12.5-30.2l-24.1-24.1
			c-8-8-18.8-12.5-30.2-12.5c-11.3,0-22.2,4.5-30.2,12.5L223,204.5c-2.3,2.3-4.4,4.9-6.1,7.8l0,0c-0.1,0.2-0.3,0.5-0.5,0.7
			c-9.9,16.7-7.2,38.1,6.5,51.8l24.1,24.1c6.6,6.5,15.1,10.7,24.3,11.9l-28.6,28.6c-5-2.8-9.7-6.3-13.8-10.3l-36.2-36.2
			c-5.5-5.5-10-11.9-13.3-18.9c-12.5-26.1-7.1-57.2,13.3-77.7L342.2,37.1z M288.3,281.8c-9.7,4.7-21.4,2.7-29-4.9l-24.1-24.1
			c-7.6-7.7-9.6-19.3-4.9-29.1c9.7-4.7,21.4-2.7,29,4.9l24.1,24.1C291,260.4,293,272.1,288.3,281.8z M170,281.7
			c3.1,4.8,6.8,9.3,10.8,13.3l36.2,36.2c4.1,4,8.5,7.7,13.3,10.8l-90.7,90.7c-10.1,9.7-26.1,9.7-36.2,0l-24.1-24.1
			c-4.8-4.8-7.5-11.3-7.5-18.1s2.7-13.3,7.5-18.1L170,281.7z M37.1,342.2l119.7-119.7c-2.1,14.6-0.4,29.5,5,43.3l-94.5,94.5
			c-8,8-12.5,18.8-12.5,30.2s4.5,22.2,12.5,30.2l24.1,24.1c8,8,18.8,12.5,30.2,12.5s22.2-4.5,30.2-12.5L295.4,301
			c2.3-2.3,4.4-4.9,6.1-7.8l0,0c0.1-0.2,0.3-0.5,0.5-0.7c9.9-16.7,7.2-38.1-6.6-51.9l-24.1-24.1c-6.5-6.5-15-10.8-24.2-12l28.5-28.5
			c5,2.8,9.7,6.3,13.8,10.3l36.2,36.2c5.5,5.5,10,11.9,13.3,18.9c12.5,26.1,7.1,57.2-13.3,77.6L169.8,474.9
			c-26.7,26.6-69.9,26.6-96.5,0l-36.2-36.2C10.4,412.1,10.4,368.9,37.1,342.2L37.1,342.2z"/>
	</g>
</g>
</svg>
