<?xml version="1.0" encoding="utf-8"?>
<!-- Generator: Adobe Illustrator 24.1.2, SVG Export Plug-In . SVG Version: 6.00 Build 0)  -->
<svg version="1.1" id="Calque_1" xmlns="http://www.w3.org/2000/svg" xmlns:xlink="http://www.w3.org/1999/xlink" x="0px" y="0px"
	 viewBox="0 0 21.9 25.6" style="enable-background:new 0 0 21.9 25.6;" xml:space="preserve">
<style type="text/css">
	.st0{clip-path:url(#SVGID_2_);}
	.st1{clip-path:url(#SVGID_4_);}
	.st2{fill:#00DDF0;}
	.st3{fill:#FFFFFF;}
	.st4{fill:#00AFFF;}
	.st5{fill:#065CFF;}
	.st6{fill:#061FDA;}
</style>
<g>
	<g id="Calque_2_1_">
		<g id="Calque_1-2">
			<g>
				<g>
					<defs>
						<rect id="SVGID_1_" x="0" y="8.9" width="13" height="16.7"/>
					</defs>
					<clipPath id="SVGID_2_">
						<use xlink:href="#SVGID_1_"  style="overflow:visible;"/>
					</clipPath>
					<g class="st0">
						<g>
							<defs>
								<rect id="SVGID_3_" x="0" y="8.9" width="13" height="16.7"/>
							</defs>
							<clipPath id="SVGID_4_">
								<use xlink:href="#SVGID_3_"  style="overflow:visible;"/>
							</clipPath>
							<g class="st1">
								<path class="st2" d="M12.4,22.1l-6.3-6.3c-1.3-1.3-2-3-2-4.8c0-1.1-0.9-2-2.1-2c-1.1,0-2,0.9-2,2.1c0,2.9,1.1,5.7,3.2,7.7
									L9.4,25c0,0,0,0,0.1,0.1c0.4,0.4,0.9,0.6,1.4,0.6l0,0c0.5,0,1.1-0.2,1.4-0.6c0.8-0.8,0.8-2,0.1-2.8
									C12.4,22.2,12.4,22.2,12.4,22.1"/>
							</g>
						</g>
					</g>
				</g>
			</g>
			<path class="st3" d="M13,10.9c0,1.1-0.9,2-2,1.9c-1.1,0-2-0.9-1.9-2c0-1.1,0.9-1.9,2-1.9C12.1,8.8,13,9.7,13,10.9
				C13,10.9,13,10.9,13,10.9"/>
			<path class="st4" d="M21.9,10.7L21.9,10.7L21.9,10.7c0-0.1,0-0.2,0-0.2l0,0c-0.1-1.3-0.4-2.5-0.9-3.7c-2.3-5.6-8.7-8.2-14.3-5.9
				c-4,1.7-6.6,5.5-6.7,9.8c0,0.1,0,0.2,0,0.3c0,1.1,0.9,2,2,2l0,0c1.1,0,2-0.9,2-2c0-3.8,3.1-6.8,6.9-6.8c3.6,0,6.6,2.9,6.8,6.5
				v0.2c0,0.1,0,0.3,0,0.4c0.1,1,1,1.8,2,1.8h0.1c1,0,1.8-0.7,2-1.6l0.1,0.1C21.9,11.2,21.9,10.9,21.9,10.7"/>
			<path class="st5" d="M2,13c1.1,0,2-0.9,2-2S3.1,9,2,9s-2,0.9-2,2S0.9,13,2,13"/>
			<path class="st5" d="M21.9,11.2V11l0,0c-0.1-1-0.9-1.7-1.9-1.7c-1-0.1-1.9,0.6-2.1,1.6h0v0.3c-0.1,1.7-0.8,3.3-2,4.6l0,0
				l-6.3,6.3c-0.8,0.8-0.8,2.1,0,2.9c0.8,0.8,2,0.8,2.8,0.1c0,0,0,0,0.1-0.1l6.3-6.3v0c1.9-1.9,3-4.5,3.1-7.2c0-0.1,0-0.1,0-0.1
				L21.9,11.2z"/>
			<path class="st2" d="M21.9,10.9c0,1.1-0.9,2-2,1.9c-1.1,0-2-0.9-1.9-2.1c0-1.1,0.9-1.9,1.9-1.9C20.9,8.9,21.9,9.8,21.9,10.9"/>
			<path class="st6" d="M12.4,22.1l-1.4-1.4l-1.4,1.4c-0.8,0.8-0.8,2-0.1,2.8c0,0,0,0,0.1,0.1c0.8,0.8,2,0.8,2.8,0.1
				c0,0,0,0,0.1-0.1C13.2,24.2,13.2,23,12.4,22.1C12.4,22.1,12.4,22.1,12.4,22.1"/>
		</g>
	</g>
</g>
</svg>
