<svg xmlns="http://www.w3.org/2000/svg" viewBox="0 0 80.7 12.58"><defs><style>.cls-1{fill:#022d7e;}</style></defs><g id="Calque_2" data-name="Calque 2"><g id="Calque_1-2" data-name="Calque 1"><path class="cls-1" d="M10.89,3.75A4.36,4.36,0,0,0,9,4.13,3.45,3.45,0,0,0,7.66,5.19,2.76,2.76,0,0,0,6.47,4.11a4,4,0,0,0-1.72-.36,4.25,4.25,0,0,0-1.62.3,3.29,3.29,0,0,0-1.21.89V3.84H0v8.63H2V8.09a2.76,2.76,0,0,1,.6-1.92,2.12,2.12,0,0,1,1.64-.66,1.8,1.8,0,0,1,1.44.57,2.5,2.5,0,0,1,.5,1.71v4.68h2V8.09a2.73,2.73,0,0,1,.62-1.91,2.08,2.08,0,0,1,1.63-.67,1.8,1.8,0,0,1,1.43.57,2.5,2.5,0,0,1,.5,1.71v4.68h2V7.53a3.82,3.82,0,0,0-.95-2.84,3.5,3.5,0,0,0-2.58-.94"/><path class="cls-1" d="M22.53,4.31a5.27,5.27,0,0,0-4.73,0,4.13,4.13,0,0,0-1.64,1.57,4.45,4.45,0,0,0-.59,2.28,4.45,4.45,0,0,0,.59,2.28A4.09,4.09,0,0,0,17.8,12a5.27,5.27,0,0,0,4.73,0,4.09,4.09,0,0,0,1.64-1.58,4.36,4.36,0,0,0,.59-2.28,4.36,4.36,0,0,0-.59-2.28,4.13,4.13,0,0,0-1.64-1.57M22,10.11a2.66,2.66,0,0,1-3.68,0,2.72,2.72,0,0,1-.71-1.95,2.74,2.74,0,0,1,.71-2A2.66,2.66,0,0,1,22,6.2a2.71,2.71,0,0,1,.73,2A2.69,2.69,0,0,1,22,10.11"/><path class="cls-1" d="M32.93,4.3a4.58,4.58,0,0,0-2.26-.55A3.88,3.88,0,0,0,29.13,4a3.45,3.45,0,0,0-1.22.85V.48h-2v12h1.92V11.36a3.33,3.33,0,0,0,1.24.92,4.25,4.25,0,0,0,1.62.3A4.58,4.58,0,0,0,32.93,12a3.9,3.9,0,0,0,1.56-1.56,4.7,4.7,0,0,0,.56-2.31,4.67,4.67,0,0,0-.56-2.31A3.94,3.94,0,0,0,32.93,4.3m-.65,5.81a2.42,2.42,0,0,1-1.83.74,2.6,2.6,0,0,1-1.31-.33,2.31,2.31,0,0,1-.92-.94,2.84,2.84,0,0,1-.34-1.42,2.84,2.84,0,0,1,.34-1.42,2.34,2.34,0,0,1,.92-1,2.6,2.6,0,0,1,1.31-.33,2.46,2.46,0,0,1,1.83.74,2.71,2.71,0,0,1,.72,2,2.68,2.68,0,0,1-.72,1.95"/><path class="cls-1" d="M37.18,0a1.32,1.32,0,0,0-.92.35,1.12,1.12,0,0,0-.37.86,1.14,1.14,0,0,0,.37.87,1.31,1.31,0,0,0,.92.34,1.26,1.26,0,0,0,.93-.36,1.22,1.22,0,0,0,.36-.9A1.06,1.06,0,0,0,38.1.33,1.31,1.31,0,0,0,37.18,0"/><rect class="cls-1" x="36.17" y="3.84" width="2.02" height="8.63"/><rect class="cls-1" x="40.03" y="0.48" width="2.02" height="11.99"/><path class="cls-1" d="M50.14,4.31a5.3,5.3,0,0,0-4.74,0,4.2,4.2,0,0,0-1.64,1.57,4.45,4.45,0,0,0-.59,2.28,4.45,4.45,0,0,0,.59,2.28A4.15,4.15,0,0,0,45.4,12a5.3,5.3,0,0,0,4.74,0,4.15,4.15,0,0,0,1.64-1.58,4.45,4.45,0,0,0,.59-2.28,4.45,4.45,0,0,0-.59-2.28,4.2,4.2,0,0,0-1.64-1.57m-.54,5.8a2.65,2.65,0,0,1-3.67,0,2.68,2.68,0,0,1-.72-1.95,2.71,2.71,0,0,1,.72-2,2.65,2.65,0,0,1,3.67,0,2.67,2.67,0,0,1,.73,2,2.65,2.65,0,0,1-.73,1.95"/><path class="cls-1" d="M58.46,7.79a12.29,12.29,0,0,0-1.7-.38A7,7,0,0,1,55.23,7a.69.69,0,0,1-.49-.68.78.78,0,0,1,.46-.7,2.73,2.73,0,0,1,1.35-.27A4.79,4.79,0,0,1,59,6l.78-1.53A4.85,4.85,0,0,0,58.34,4a7.63,7.63,0,0,0-1.77-.2,4.64,4.64,0,0,0-2.77.73,2.29,2.29,0,0,0-1,2,2.06,2.06,0,0,0,.49,1.47,2.67,2.67,0,0,0,1.17.73A10.8,10.8,0,0,0,56.16,9a8.06,8.06,0,0,1,1.48.34.64.64,0,0,1,.46.63c0,.64-.6,1-1.81,1a5.71,5.71,0,0,1-1.61-.24,4.68,4.68,0,0,1-1.39-.62l-.78,1.53a5.09,5.09,0,0,0,1.6.7,7.85,7.85,0,0,0,2,.27A5,5,0,0,0,59,11.86a2.26,2.26,0,0,0,1-1.94,2,2,0,0,0-.48-1.42,2.53,2.53,0,0,0-1.13-.71"/><path class="cls-1" d="M67.26,4.31a5,5,0,0,0-2.38-.56,4.94,4.94,0,0,0-2.35.56,4.13,4.13,0,0,0-1.64,1.57,4.36,4.36,0,0,0-.59,2.28,4.36,4.36,0,0,0,.59,2.28A4.09,4.09,0,0,0,62.53,12a4.94,4.94,0,0,0,2.35.56A5,5,0,0,0,67.26,12a4.15,4.15,0,0,0,1.64-1.58,4.45,4.45,0,0,0,.59-2.28,4.45,4.45,0,0,0-.59-2.28,4.2,4.2,0,0,0-1.64-1.57m-.53,5.8a2.46,2.46,0,0,1-1.85.74,2.42,2.42,0,0,1-1.83-.74,2.68,2.68,0,0,1-.72-1.95,2.71,2.71,0,0,1,.72-2,2.46,2.46,0,0,1,1.83-.74,2.5,2.5,0,0,1,1.85.74,2.71,2.71,0,0,1,.72,2,2.68,2.68,0,0,1-.72,1.95"/><path class="cls-1" d="M80.13,10.56a1.76,1.76,0,0,1-1.13.36,1.16,1.16,0,0,1-.89-.33,1.38,1.38,0,0,1-.3-1V5.52h2.31V3.91H77.81v-2h-2v2h-3.2V3.39C72.59,2.47,73,2,73.86,2a1.79,1.79,0,0,1,1.1.36L75.53.84A3.11,3.11,0,0,0,73.72.37a3.08,3.08,0,0,0-2.29.81,2.94,2.94,0,0,0-.81,2.18v9.11h2v-7h3.15V9.68a2.89,2.89,0,0,0,.77,2.16,3.08,3.08,0,0,0,2.2.74,4.13,4.13,0,0,0,1.07-.14A2.55,2.55,0,0,0,80.7,12Z"/></g></g></svg>