<?xml version="1.0" encoding="utf-8"?>
<!-- Generator: Adobe Illustrator 24.0.3, SVG Export Plug-In . SVG Version: 6.00 Build 0)  -->
<svg version="1.1" id="Layer_1" xmlns="http://www.w3.org/2000/svg" xmlns:xlink="http://www.w3.org/1999/xlink" x="0px" y="0px"
	 viewBox="0 0 512 512" style="enable-background:new 0 0 512 512;" xml:space="preserve">
<style type="text/css">
	.st0{fill:#FFFFFF;}
</style>
<g>
	<g>
		<path class="st0" d="M510.2,239.8l0.2-0.1L403.7,69c-1.9-3.1-5.4-5-9-5H117.3c-3.7,0-7.1,1.9-9,5L1.6,239.7l0.2,0.1
			c-1,1.6-1.8,3.5-1.8,5.6v160C0,428.9,19.1,448,42.7,448h426.7c23.5,0,42.7-19.1,42.7-42.7v-160C512,243.2,511.2,241.4,510.2,239.8
			z M123.2,85.3h265.5l93.3,149.3h-76.8c-23.5,0-42.7,19.1-42.7,42.7c0,11.8-9.6,21.3-21.3,21.3H170.7c-11.8,0-21.3-9.6-21.3-21.3
			c0-23.5-19.1-42.7-42.7-42.7H29.9L123.2,85.3z M490.7,405.3c0,11.8-9.6,21.3-21.3,21.3H42.7c-11.8,0-21.3-9.6-21.3-21.3V256h85.3
			c11.8,0,21.3,9.6,21.3,21.3c0,23.5,19.1,42.7,42.7,42.7h170.7c23.5,0,42.7-19.1,42.7-42.7c0-11.8,9.6-21.3,21.3-21.3h85.3
			L490.7,405.3L490.7,405.3z"/>
	</g>
</g>
</svg>
