<?xml version="1.0" encoding="utf-8"?>
<!-- Generator: Adobe Illustrator 24.0.3, SVG Export Plug-In . SVG Version: 6.00 Build 0)  -->
<svg version="1.1" id="Capa_1" xmlns="http://www.w3.org/2000/svg" xmlns:xlink="http://www.w3.org/1999/xlink" x="0px" y="0px"
	 viewBox="0 0 357.2 357.2" style="enable-background:new 0 0 357.2 357.2;" xml:space="preserve">
<style type="text/css">
	.st0{fill:#FFFFFF;}
</style>
<g>
	<g>
		<path class="st0" d="M343.2,73.6H322V52c0-8-6.4-14.4-14.4-14.4H14.4C6.4,37.6,0,44,0,52v217.2c0,8,6.4,14.4,14.4,14.4h21.2v21.6
			c0,8,6.4,14.4,14.4,14.4h292.8c8,0,14.4-6.4,14.4-14.4V88.4C357.6,80.4,351.2,73.6,343.2,73.6z M14.8,51.6L307.6,52v148.4
			L242,154.8c-2.4-1.6-5.6-1.6-8,0l-58,39.6L110.4,130c-2.8-2.4-6.8-2.8-9.6-0.4l-86.4,71.6L14.8,51.6z M14,269.2v-49.6l90.8-75.2
			l65.2,64c2.4,2.4,6.4,2.8,9.2,0.8l58.8-40l69.6,48.4v51.6c0,0,0,0.4-0.4,0.4L14,269.2z M343.2,306L50,305.6V284h257.6
			c8,0,14.4-6.4,14.4-14.4V88l21.6,0.4L343.2,306z"/>
	</g>
</g>
<g>
	<g>
		<path class="st0" d="M221.2,74c-17.6,0-31.6,14.4-31.6,31.6s14,31.6,31.6,31.6s31.6-14.4,31.6-31.6S238.4,74,221.2,74z
			 M221.2,123.2c-9.6,0-17.6-8-17.6-17.6s8-17.6,17.6-17.6s17.6,8,17.6,17.6S230.8,123.2,221.2,123.2z"/>
	</g>
</g>
</svg>
