<?xml version="1.0" encoding="utf-8"?>
<!-- Generator: Adobe Illustrator 24.0.3, SVG Export Plug-In . SVG Version: 6.00 Build 0)  -->
<svg version="1.1" id="Layer_1" xmlns="http://www.w3.org/2000/svg" xmlns:xlink="http://www.w3.org/1999/xlink" x="0px" y="0px"
	 viewBox="0 0 512 512" style="enable-background:new 0 0 512 512;" xml:space="preserve">
<style type="text/css">
	.st0{fill:#FFFFFF;}
</style>
<g>
	<g>
		<path class="st0" d="M488.4,492h-21.9V93.5c0-14.8-12.1-26.9-26.9-26.9h-49c-14.8,0-26.9,12.1-26.9,26.9V492H308V237.8
			c0-14.8-12.1-26.9-26.9-26.9h-49c-14.8,0-26.9,12.1-26.9,26.9V492h-55.7V321.8c0-14.8-12.1-26.9-26.9-26.9h-49
			c-14.8,0-26.9,12.1-26.9,26.9V492H23.6c-5.5,0-10,4.5-10,10s4.5,10,10,10h464.8c5.5,0,10-4.5,10-10S493.9,492,488.4,492z
			 M129.5,492H66.7V321.8c0-3.8,3.1-6.9,6.9-6.9h49c3.8,0,6.9,3.1,6.9,6.9V492L129.5,492z M288,492h-62.8V237.8
			c0-3.8,3.1-6.9,6.9-6.9h49c3.8,0,6.9,3.1,6.9,6.9L288,492L288,492z M446.5,492h-62.8V93.5c0-3.8,3.1-6.9,6.9-6.9h49
			c3.8,0,6.9,3.1,6.9,6.9V492L446.5,492z"/>
	</g>
</g>
</svg>
