<?xml version="1.0" encoding="utf-8"?>
<!-- Generator: Adobe Illustrator 24.0.3, SVG Export Plug-In . SVG Version: 6.00 Build 0)  -->
<svg version="1.1" id="Capa_1" xmlns="http://www.w3.org/2000/svg" xmlns:xlink="http://www.w3.org/1999/xlink" x="0px" y="0px"
	 viewBox="0 0 337.5 337.5" style="enable-background:new 0 0 337.5 337.5;" xml:space="preserve">
<style type="text/css">
	.st0{fill:#FFFFFF;}
</style>
<path class="st0" d="M272,160.1L272,160.1c5,0,9,4,9,9s-4,9-9,9s-9-4-9-9S267,160.1,272,160.1z M238.7,92.1L238.7,92.1
	c-3.8,3.3-4.1,9-0.8,12.7c1.8,2,4.3,3,6.8,3c2.1,0,4.2-0.7,6-2.2c3.7-3.3,4.1-9,0.8-12.7C248.1,89.2,242.4,88.9,238.7,92.1z
	 M261.9,124.2L261.9,124.2c-4.6,1.9-6.8,7.2-4.9,11.8c1.4,3.5,4.8,5.6,8.3,5.6c1.1,0,2.3-0.2,3.4-0.7c4.6-1.9,6.8-7.1,4.9-11.7
	S266.5,122.3,261.9,124.2z M319.9,112.3c-10.4-25.3-27-47.7-48.1-64.9c-3.9-3.1-9.5-2.5-12.7,1.3c-3.1,3.9-2.5,9.5,1.3,12.7
	c18.8,15.2,33.6,35.2,42.8,57.7c14.7,35.9,14.5,75.4-0.5,111.2c-15,35.8-43.1,63.6-79,78.3c-35.9,14.7-75.4,14.5-111.2-0.5
	c-35.8-15-63.6-43.1-78.3-79c-14.7-35.9-14.5-75.4,0.5-111.2c15-35.8,43.1-63.6,79-78.3c23.4-9.6,49-12.9,73.9-9.6
	c4.9,0.7,9.4-2.8,10.1-7.7c0.6-4.9-2.8-9.4-7.7-10.1c-28-3.7-56.8,0-83.1,10.8C66.5,39.5,35,70.7,18.2,111
	c-16.9,40.2-17.1,84.6-0.5,125c16.5,40.4,47.8,71.9,88,88.8c20.3,8.5,41.7,12.8,63.1,12.8c20.9,0,41.9-4.1,61.8-12.2
	c40.4-16.5,71.9-47.8,88.8-88C336.2,197,336.4,152.7,319.9,112.3z M105,218.2h127.5c5,0,9-4,9-9s-4-9-9-9H105c-5,0-9,4-9,9
	S100,218.2,105,218.2z M165,177.2c1.2,0.5,2.5,0.8,3.7,0.8c3.4,0,6.7-2,8.2-5.3l72.5-160c2.1-4.5,0-9.9-4.5-11.9
	c-4.5-2.1-9.9,0-11.9,4.5l-72.5,160C158.5,169.9,160.5,175.2,165,177.2z M172.8,74.5c5,0.3,9.2-3.6,9.4-8.6c0.2-5-3.6-9.2-8.6-9.4
	c-1.8-0.1-3.6-0.1-5.3-0.1c-62.1,0-112.7,50.5-112.7,112.7c0,5,4,9,9,9s9-4,9-9C73.6,115.4,118.5,72,172.8,74.5z"/>
</svg>
