<?xml version="1.0" encoding="utf-8"?>
<!-- Generator: Adobe Illustrator 24.2.0, SVG Export Plug-In . SVG Version: 6.00 Build 0)  -->
<svg version="1.1" id="Capa_1" xmlns="http://www.w3.org/2000/svg" xmlns:xlink="http://www.w3.org/1999/xlink" x="0px" y="0px"
	 viewBox="0 0 385 385" style="enable-background:new 0 0 385 385;" xml:space="preserve">
<g>
	<g id="Double_Arrow_Left_x2F_Right">
		<path d="M228.3,40.9v187.6c0,6.6,5.4,12,12.2,12s12.2-5.4,12.2-12V40.9l63.5,62.6c4.8,4.7,12.4,4.7,17.2,0c4.8-4.7,4.8-12.3,0-17
			l-84.2-83c-4.7-4.6-12.5-4.7-17.2,0l-84.2,83c-4.8,4.7-4.7,12.3,0,17c4.7,4.7,12.4,4.7,17.2,0L228.3,40.9z"/>
		<path d="M153.1,381.5l84.2-83c4.8-4.7,4.7-12.3,0-17c-4.7-4.7-12.4-4.7-17.2,0L156.6,344V156.4c0-6.6-5.4-12-12.2-12
			s-12.2,5.4-12.2,12V344l-63.5-62.6c-4.8-4.7-12.4-4.7-17.2,0c-4.8,4.7-4.8,12.3,0,17l84.2,83C140.5,386.1,148.4,386.2,153.1,381.5
			z"/>
	</g>
</g>
</svg>
