<?xml version="1.0" encoding="utf-8"?>
<!-- Generator: Adobe Illustrator 24.1.2, SVG Export Plug-In . SVG Version: 6.00 Build 0)  -->
<svg version="1.1" id="Layer_1" xmlns="http://www.w3.org/2000/svg" xmlns:xlink="http://www.w3.org/1999/xlink" x="0px" y="0px"
	 viewBox="0 0 512 512" style="enable-background:new 0 0 512 512;" xml:space="preserve">
<style type="text/css">
	.st0{fill:#00B0FF;stroke:#00B0FF;stroke-width:19;stroke-miterlimit:10;}
	.st1{fill:#00B0FF;}
	.st2{fill:#00B0FF;stroke:#00B0FF;stroke-width:11;stroke-miterlimit:10;}
</style>
<g>
	<g>
		<g>
			<path class="st0" d="M393.9,49.8H353c-4-11.4-14.8-19.6-27.5-19.6H296c-9.3-12.2-23.7-19.5-39-19.5s-29.7,7.4-38.9,19.6h-29.5
				c-12.7,0-23.5,8.2-27.5,19.6h-40.9C98.5,49.8,81,67.3,81,88.9v352c0,21.6,17.5,39.1,39.1,39.1h273.8c21.6,0,39.1-17.5,39.1-39.1
				v-352C433,67.3,415.5,49.8,393.9,49.8z M178.8,59.6c0-5.4,4.4-9.8,9.8-9.8h34.8c3.5,0,6.7-1.9,8.5-4.9
				c5.4-9.2,14.8-14.7,25.2-14.7s19.9,5.5,25.2,14.7c1.8,3,5,4.9,8.5,4.9h34.8c5.4,0,9.8,4.4,9.8,9.8v9.8c0,10.8-8.8,19.6-19.6,19.6
				H198.3c-10.8,0-19.6-8.8-19.6-19.6L178.8,59.6L178.8,59.6z M413.4,440.9c0,10.8-8.8,19.6-19.6,19.6H120.1
				c-10.8,0-19.6-8.8-19.6-19.6v-352c0-10.8,8.8-19.6,19.6-19.6h39.1c0,21.6,17.5,39.1,39.1,39.1h117.3c21.6,0,39.1-17.5,39.1-39.1
				h39.1c10.8,0,19.6,8.8,19.6,19.6V440.9L413.4,440.9z"/>
			<path class="st1" d="M345,401.8H169c-5.4,0-9.8,4.4-9.8,9.8s4.4,9.8,9.8,9.8h176c5.4,0,9.8-4.4,9.8-9.8S350.4,401.8,345,401.8z"
				/>
			<path class="st1" d="M345,343.1H169c-5.4,0-9.8,4.4-9.8,9.8s4.4,9.8,9.8,9.8h176c5.4,0,9.8-4.4,9.8-9.8S350.4,343.1,345,343.1z"
				/>
			<path class="st2" d="M345,245.3h-13.5l-16.9-33.7c-1.7-3.5-5.2-5.5-9.3-5.4c-3.9,0.2-7.3,2.7-8.6,6.3l-18.3,48.8l-21.7-86.9
				c-1-4-4.3-6.9-8.4-7.4c-4.1-0.4-8,1.7-9.8,5.3l-36.4,72.8H169c-5.4,0-9.8,4.4-9.8,9.8c0,5.4,4.4,9.8,9.8,9.8h39.1
				c3.7,0,7.1-2.1,8.7-5.4l27.3-54.6l22.9,91.7c1,4.2,4.7,7.2,8.9,7.4c0.2,0,0.4,0,0.6,0c4.1,0,7.7-2.5,9.2-6.3l21.5-57.2l9.5,19.1
				c1.7,3.3,5,5.4,8.7,5.4H345c5.4,0,9.8-4.4,9.8-9.8C354.8,249.7,350.4,245.3,345,245.3z"/>
		</g>
	</g>
</g>
</svg>
