<?xml version="1.0" encoding="utf-8"?>
<!-- Generator: Adobe Illustrator 24.0.0, SVG Export Plug-In . SVG Version: 6.00 Build 0)  -->
<svg version="1.1" id="Capa_1" xmlns="http://www.w3.org/2000/svg" xmlns:xlink="http://www.w3.org/1999/xlink" x="0px" y="0px"
	 viewBox="0 0 512.2 512.2" style="enable-background:new 0 0 512.2 512.2;" xml:space="preserve">
<style type="text/css">
	.st0{fill:#545454;}
</style>
<g>
	<g>
		<path class="st0" d="M297.6,476.3L509.2,261c2-2,3.1-4.7,3-7.6c0-2.8-1.2-5.5-3.2-7.6L293.6,35c-3.1-3.1-7.6-3.8-11.6-2.2
			c-4,1.7-6.5,5.6-6.5,10l1.1,117.3L9.8,162.5c-5.9,0.1-10.7,4.9-10.6,10.8L0.8,344c0.1,5.9,4.9,10.7,10.8,10.6l266.7-2.4l1.1,116.9
			c0,4.3,2.7,8.2,6.7,9.8C290,480.4,294.5,479.5,297.6,476.3z"/>
	</g>
</g>
</svg>
