<?xml version="1.0" encoding="utf-8"?>
<!-- Generator: Adobe Illustrator 24.1.2, SVG Export Plug-In . SVG Version: 6.00 Build 0)  -->
<svg version="1.1" id="Capa_1" xmlns="http://www.w3.org/2000/svg" xmlns:xlink="http://www.w3.org/1999/xlink" x="0px" y="0px"
	 viewBox="0 0 53 53" style="enable-background:new 0 0 53 53;" xml:space="preserve">
<style type="text/css">
	.st0{fill:#00B0FF;stroke:#00B0FF;stroke-width:3;stroke-miterlimit:10;}
</style>
<path class="st0" d="M50.7,50.4L36.6,35.7c3.6-3.6,5.9-8.5,5.9-14c0-11-8.9-19.9-19.9-19.9S2.7,10.7,2.7,21.7s8.9,19.9,19.9,19.9
	c4.8,0,9.2-1.7,12.7-4.5l14.1,14.7c0.2,0.2,0.5,0.3,0.7,0.3s0.5-0.1,0.7-0.3C51.1,51.3,51.1,50.8,50.7,50.4z M22.6,39.7
	c-9.9,0-18-8-18-18s8-18,18-18s18,8,18,18S32.5,39.7,22.6,39.7z"/>
</svg>
