<?xml version="1.0" encoding="utf-8"?>
<!-- Generator: Adobe Illustrator 24.0.3, SVG Export Plug-In . SVG Version: 6.00 Build 0)  -->
<svg version="1.1" id="Layer_1" xmlns="http://www.w3.org/2000/svg" xmlns:xlink="http://www.w3.org/1999/xlink" x="0px" y="0px"
	 viewBox="0 0 512 512" style="enable-background:new 0 0 512 512;" xml:space="preserve">
<style type="text/css">
	.st0{fill:#FFFFFF;}
</style>
<g>
	<path class="st0" d="M415.5,333.7h-319l-0.2-14.6c0-0.5,0-1.1,0-1.6c0-88.1,71.6-159.7,159.7-159.7c88.1,0,159.7,71.6,159.7,159.7
		c0,0.5,0,1.1,0,1.6L415.5,333.7z M125.2,305.4h261.6c-6.2-66.8-62.5-119.2-130.8-119.2S131.3,238.6,125.2,305.4z"/>
	<rect x="298.9" y="111.6" class="st0" width="28.3" height="75.4"/>
	<rect x="184.8" y="111.6" class="st0" width="28.3" height="75.4"/>
	<path class="st0" d="M352.8,125.8H159.2c-21.2,0-38.5-17.3-38.5-38.5V38.5c0-21.2,17.3-38.5,38.5-38.5h193.6
		c21.2,0,38.5,17.3,38.5,38.5v48.7C391.3,108.5,374,125.8,352.8,125.8z M159.2,28.3c-5.6,0-10.2,4.6-10.2,10.2v48.7
		c0,5.6,4.6,10.2,10.2,10.2h193.6c5.6,0,10.2-4.6,10.2-10.2V38.5c0-5.6-4.6-10.2-10.2-10.2H159.2z"/>
</g>
<path class="st0" d="M255.8,512c-9,0-16.5-6.3-18-15.1l-36.7-191.5h109.4l-36.7,191.5C272.2,505.7,264.7,512,255.8,512z
	 M235.4,333.7l20.4,106.5l20.4-106.5H235.4L235.4,333.7z"/>
</svg>
