<?xml version="1.0" encoding="utf-8"?>
<!-- Generator: Adobe Illustrator 24.2.0, SVG Export Plug-In . SVG Version: 6.00 Build 0)  -->
<svg version="1.1" id="Capa_1" xmlns="http://www.w3.org/2000/svg" xmlns:xlink="http://www.w3.org/1999/xlink" x="0px" y="0px"
	 viewBox="0 0 512 387" style="enable-background:new 0 0 512 387;" xml:space="preserve">
<style type="text/css">
	.st0{fill:#00B0FF;}
</style>
<g>
	<g>
		<path class="st0" d="M510.1,184.9C506.1,179,409.2,41.6,256,41.6C124.6,41.7,7.4,178.3,2.5,184.1c-3.3,4-3.3,9.8,0,13.8
			c4.9,5.8,122,142.4,253.5,142.4s248.6-136.6,253.5-142.4C512.6,194.2,512.8,188.9,510.1,184.9z M256,319
			C150.6,319,50.4,218.5,25,191C50.4,163.5,150.5,63,256,63c123.3,0,210.3,100.3,231.6,127.4C463,217.1,362.3,319,256,319z"/>
	</g>
</g>
<g>
	<g>
		<path class="st0" d="M256,105.7c-47.1,0-85.3,38.3-85.3,85.3s38.3,85.3,85.3,85.3s85.3-38.3,85.3-85.3S303.1,105.7,256,105.7z
			 M256,255c-35.3,0-64-28.7-64-64s28.7-64,64-64s64,28.7,64,64S291.3,255,256,255z"/>
	</g>
</g>
<polygon class="st0" points="432.2,379.4 75.9,23 92.8,7.1 449.1,363.5 "/>
</svg>
